<?xml version="1.0" encoding="UTF-8" standalone="no"?>
<!-- Creator: Corel DESIGNER -->
<svg xmlns:dc="http://purl.org/dc/elements/1.1/" xmlns:cc="http://web.resource.org/cc/" xmlns:rdf="http://www.w3.org/1999/02/22-rdf-syntax-ns#" xmlns:svg="http://www.w3.org/2000/svg" xmlns="http://www.w3.org/2000/svg" xmlns:sodipodi="http://sodipodi.sourceforge.net/DTD/sodipodi-0.dtd" xmlns:inkscape="http://www.inkscape.org/namespaces/inkscape" xml:space="preserve" width="800px" height="440px" style="shape-rendering:geometricPrecision; text-rendering:geometricPrecision; image-rendering:optimizeQuality; fill-rule:evenodd; clip-rule:evenodd" viewBox="0 0 800 440.367" id="svg2337" sodipodi:version="0.32" inkscape:version="0.45.1" sodipodi:docname="pipeline.svg" inkscape:output_extension="org.inkscape.output.svg.inkscape" sodipodi:docbase="C:\My\wp\cg"><metadata id="metadata2455"><rdf:RDF><cc:Work rdf:about=""><dc:format>image/svg+xml</dc:format><dc:type rdf:resource="http://purl.org/dc/dcmitype/StillImage"/></cc:Work></rdf:RDF></metadata><sodipodi:namedview inkscape:window-height="579" inkscape:window-width="748" inkscape:pageshadow="2" inkscape:pageopacity="0.0" guidetolerance="10.0" gridtolerance="10.0" objecttolerance="10.0" borderopacity="1.0" bordercolor="#666666" pagecolor="#ffffff" id="base" inkscape:zoom="0.83" inkscape:cx="400" inkscape:cy="220" inkscape:window-x="198" inkscape:window-y="198" inkscape:current-layer="svg2337"/>
 <defs id="defs2339">
  <style type="text/css" id="style2341">
   
    .str0 {stroke:#1F1A17;stroke-width:1.35905;stroke-linecap:round;stroke-linejoin:round}
    .fil2 {fill:#1F1A17}
    .fil5 {fill:#141516}
    .fil3 {fill:#484F52}
    .fil6 {fill:#CCCED2}
    .fil1 {fill:#EDE060}
    .fil0 {fill:white}
    .fil4 {fill:#1F1A17;fill-rule:nonzero}
    .fnt1 {font-weight:normal;font-size:16.31;font-family:'DejaVu Sans'}
    .fnt2 {font-weight:normal;font-size:19.0282;font-family:'DejaVu Serif'}
    .fnt0 {font-style:italic;font-weight:normal;font-size:14.9507;font-family:'DejaVu Sans'}
   
  </style>
 
  <metadata id="CorelCorpID_0Corel-Layer"/>
  
  
 
   
   
   
   
   
   
   
   
   
   
   
   
   
   
   
   
   
   
   
   
   
   
   
   
   
   
   
   
   
   
   
   
   
   
   
   
   
   
   
   
   
   
   
   
   
   
  </defs>
 <rect style="fill:#ffffff" id="rect2345" height="440.367" width="800" y="-0.000192636" x="-0.000192636" class="fil0"/><rect id="_38544168" class="fil1" x="407.89099" y="204.48599" width="139.85899" height="168.084" style="fill:#ede060"/><rect id="_38330280" class="fil1" x="196.10899" y="204.48599" width="139.85899" height="168.084" style="fill:#ede060"/><text x="229.06599" y="257.84799" id="_38327728" class="fil2 fnt0" style="font-size:14.9506999px;font-style:normal;font-weight:normal;fill:#1f1a17;font-family:DejaVu Sans;font-stretch:normal;font-variant:normal;text-anchor:start;text-align:start;writing-mode:lr;line-height:125%" sodipodi:linespacing="125%">Projektion</text>

<text x="236.121" y="292.65302" id="text2351" class="fil2 fnt0" style="font-size:14.9506999px;font-style:normal;font-weight:normal;fill:#1f1a17;font-family:DejaVu Sans;font-stretch:normal;font-variant:normal;text-anchor:start;text-align:start;writing-mode:lr;line-height:125%" sodipodi:linespacing="125%">Clipping</text>

<text x="240.87399" y="327.45801" id="text2353" class="fil2 fnt0" style="font-size:14.9506999px;font-style:normal;font-weight:normal;fill:#1f1a17;font-family:DejaVu Sans;font-stretch:normal;font-variant:normal;text-anchor:start;text-align:start;writing-mode:lr;line-height:125%" sodipodi:linespacing="125%">Culling</text>

<text x="445.991" y="231.744" id="_38323880" class="fil2 fnt0" style="font-size:14.9506999px;font-style:normal;font-weight:normal;fill:#1f1a17;font-family:DejaVu Sans;font-stretch:normal;font-variant:normal;text-anchor:start;text-align:start;writing-mode:lr;line-height:125%" sodipodi:linespacing="125%">Window-</text>

<text x="442.40302" y="249.147" id="text2356" class="fil2 fnt0" style="font-size:14.9506999px;font-style:normal;font-weight:normal;fill:#1f1a17;font-family:DejaVu Sans;font-stretch:normal;font-variant:normal;text-anchor:start;text-align:start;writing-mode:lr;line-height:125%" sodipodi:linespacing="125%">Viewport-</text>

<text x="421.01199" y="266.54901" id="text2358" class="fil2 fnt0" style="font-size:14.9506999px;font-style:normal;font-weight:normal;fill:#1f1a17;font-family:DejaVu Sans;font-stretch:normal;font-variant:normal;text-anchor:start;text-align:start;writing-mode:lr;line-height:125%" sodipodi:linespacing="125%">Transformation</text>

<text x="439.83301" y="301.35501" id="text2360" class="fil2 fnt0" style="font-size:14.9506999px;font-style:normal;font-weight:normal;fill:#1f1a17;font-family:DejaVu Sans;font-stretch:normal;font-variant:normal;text-anchor:start;text-align:start;writing-mode:lr;line-height:125%" sodipodi:linespacing="125%">Rasterung</text>

<text x="426.944" y="336.16" id="text2362" class="fil2 fnt0" style="font-size:14.9506999px;font-style:normal;font-weight:normal;fill:#1f1a17;font-family:DejaVu Sans;font-stretch:normal;font-variant:normal;text-anchor:start;text-align:start;writing-mode:lr;line-height:125%" sodipodi:linespacing="125%">Verdeckungs-</text>

<text x="433.504" y="353.56201" id="text2364" class="fil2 fnt0" style="font-size:14.9506999px;font-style:normal;font-weight:normal;fill:#1f1a17;font-family:DejaVu Sans;font-stretch:normal;font-variant:normal;text-anchor:start;text-align:start;writing-mode:lr;line-height:125%" sodipodi:linespacing="125%">berechnung</text>

<rect id="_38323656" class="fil3" x="619.67401" y="248.77299" width="119.625" height="79.510696" rx="17.523199" ry="17.523199" style="fill:#484f52"/><text x="637.55499" y="294.60901" id="_38319096" class="fil0 fnt1" style="font-size:16.30999947px;font-weight:normal;fill:#ffffff;font-family:DejaVu Sans">Bildschirm</text>

<rect id="_38318616" class="fil1" x="196.10899" y="81.218002" width="139.86" height="62.1735" style="fill:#ede060"/><text x="209.381" y="117.879" id="_38314144" class="fil2 fnt0" style="font-size:14.9506999px;font-style:normal;font-weight:normal;fill:#1f1a17;font-family:DejaVu Sans;font-stretch:normal;font-variant:normal;text-anchor:start;text-align:start;writing-mode:lr;line-height:125%" sodipodi:linespacing="125%">Transformation</text>

<text x="56.0826" y="147.105" id="_38300440" class="fil2 fnt1" style="font-size:16.30999947px;font-weight:normal;fill:#1f1a17;font-family:DejaVu Sans">Szene</text>

<g id="g2371">
    <path id="_38299960" class="fil4" d="M 133.845,113.013 L 133.845,114.37224 L 133.80994,114.37128 L 133.77546,114.36877 L 133.74155,114.36434 L 133.70804,114.35837 L 133.67509,114.35086 L 133.64292,114.34161 L 133.61133,114.33102 L 133.58051,114.31888 L 133.55046,114.3052 L 133.52118,114.29018 L 133.49267,114.2738 L 133.46512,114.25608 L 133.43834,114.2372 L 133.41272,114.21698 L 133.38807,114.19559 L 133.36437,114.17305 L 133.34203,114.14955 L 133.32064,114.12489 L 133.30042,114.09927 L 133.28154,114.0725 L 133.26382,114.04495 L 133.24744,114.01644 L 133.23242,113.98716 L 133.21874,113.95711 L 133.2066,113.92629 L 133.19601,113.89469 L 133.18676,113.86252 L 133.17925,113.82958 L 133.17328,113.79606 L 133.16885,113.76216 L 133.16634,113.72768 L 133.16538,113.69262 L 133.16634,113.65756 L 133.16885,113.62308 L 133.17328,113.58917 L 133.17925,113.55565 L 133.18676,113.52271 L 133.19601,113.49054 L 133.2066,113.45895 L 133.21874,113.42813 L 133.23242,113.39808 L 133.24744,113.3688 L 133.26382,113.34029 L 133.28154,113.31274 L 133.30042,113.28596 L 133.32064,113.26034 L 133.34203,113.23569 L 133.36437,113.21199 L 133.38807,113.18965 L 133.41272,113.16826 L 133.43834,113.14804 L 133.46512,113.12916 L 133.49267,113.11143 L 133.52118,113.09506 L 133.55046,113.08003 L 133.58051,113.06636 L 133.61133,113.05422 L 133.64292,113.04363 L 133.67509,113.03438 L 133.70804,113.02687 L 133.74155,113.0209 L 133.77546,113.01646 L 133.80994,113.01396 L 133.845,113.013 L 133.845,113.013 z M 191.3273,114.37224 L 133.845,114.37224 L 133.845,113.013 L 191.3273,113.013 L 191.3273,114.37224 z M 196.10912,113.69262 L 187.83866,116.57831 L 187.94596,116.398 L 188.04632,116.21769 L 188.13975,116.03739 L 188.22625,115.85689 L 188.306,115.67658 L 188.37862,115.49627 L 188.44431,115.31577 L 188.50326,115.13546 L 188.55508,114.95515 L 188.60015,114.77485 L 188.63829,114.59435 L 188.66931,114.41404 L 188.69358,114.23373 L 188.71092,114.05342 L 188.72132,113.87292 L 188.72479,113.69261 L 188.72132,113.51231 L 188.71092,113.33181 L 188.69358,113.1515 L 188.66931,112.97119 L 188.63829,112.79088 L 188.60015,112.61038 L 188.55508,112.43007 L 188.50326,112.24977 L 188.44431,112.06946 L 188.37862,111.88896 L 188.306,111.70865 L 188.22625,111.52834 L 188.13975,111.34784 L 188.04632,111.16753 L 187.94596,110.98723 L 187.83866,110.80692 L 187.83866,110.80692 L 196.10912,113.69261 L 196.10912,113.69262 z M 191.3273,114.37224 L 191.3273,113.013 L 191.36236,113.01396 L 191.39684,113.01647 L 191.43075,113.0209 L 191.46426,113.02687 L 191.49721,113.03438 L 191.52938,113.04363 L 191.56097,113.05422 L 191.59179,113.06636 L 191.62184,113.08004 L 191.65112,113.09506 L 191.67963,113.11144 L 191.70718,113.12916 L 191.73396,113.14804 L 191.75958,113.16826 L 191.78423,113.18965 L 191.80774,113.21199 L 191.83027,113.23569 L 191.85166,113.26035 L 191.87188,113.28597 L 191.89076,113.31274 L 191.90848,113.34029 L 191.92486,113.3688 L 191.93988,113.39808 L 191.95356,113.42813 L 191.9657,113.45895 L 191.97629,113.49055 L 191.98554,113.52272 L 191.99305,113.55566 L 191.99902,113.58918 L 192.00345,113.62308 L 192.00596,113.65756 L 192.00692,113.69262 L 192.00596,113.72768 L 192.00345,113.76216 L 191.99902,113.79607 L 191.99305,113.82959 L 191.98554,113.86253 L 191.97629,113.8947 L 191.9657,113.92629 L 191.95356,113.95711 L 191.93988,113.98716 L 191.92486,114.01644 L 191.90848,114.04495 L 191.89076,114.0725 L 191.87188,114.09928 L 191.85166,114.1249 L 191.83027,114.14955 L 191.80774,114.17306 L 191.78423,114.19559 L 191.75958,114.21698 L 191.73396,114.2372 L 191.70718,114.25608 L 191.67963,114.27381 L 191.65112,114.29018 L 191.62184,114.30521 L 191.59179,114.31888 L 191.56097,114.33102 L 191.52938,114.34161 L 191.49721,114.35086 L 191.46426,114.35837 L 191.43075,114.36434 L 191.39684,114.36878 L 191.36236,114.37128 L 191.3273,114.37224 L 191.3273,114.37224 z " style="fill:#1f1a17;fill-rule:nonzero"/>
   </g><g id="g2374">
    <path class="fil4" d="M 335.968,287.849 L 335.968,289.20824 L 335.93294,289.20728 L 335.89846,289.20477 L 335.86455,289.20034 L 335.83104,289.19437 L 335.79809,289.18686 L 335.76592,289.17761 L 335.73433,289.16702 L 335.70351,289.15488 L 335.67346,289.1412 L 335.64418,289.12618 L 335.61567,289.1098 L 335.58812,289.09208 L 335.56134,289.0732 L 335.53572,289.05298 L 335.51107,289.03159 L 335.48737,289.00925 L 335.46503,288.98555 L 335.44364,288.96089 L 335.42342,288.93527 L 335.40454,288.9085 L 335.38682,288.88095 L 335.37044,288.85244 L 335.35542,288.82316 L 335.34174,288.79311 L 335.3296,288.76229 L 335.31901,288.73069 L 335.30976,288.69852 L 335.30225,288.66558 L 335.29628,288.63206 L 335.29185,288.59816 L 335.28934,288.56368 L 335.28838,288.52862 L 335.28934,288.49356 L 335.29185,288.45908 L 335.29628,288.42517 L 335.30225,288.39165 L 335.30976,288.35871 L 335.31901,288.32654 L 335.3296,288.29495 L 335.34174,288.26413 L 335.35542,288.23408 L 335.37044,288.2048 L 335.38682,288.17629 L 335.40454,288.14874 L 335.42342,288.12196 L 335.44364,288.09634 L 335.46503,288.07169 L 335.48737,288.04818 L 335.51107,288.02565 L 335.53572,288.00426 L 335.56134,287.98404 L 335.58812,287.96516 L 335.61567,287.94743 L 335.64418,287.93106 L 335.67346,287.91603 L 335.70351,287.90236 L 335.73433,287.89022 L 335.76592,287.87963 L 335.79809,287.87038 L 335.83104,287.86287 L 335.86455,287.8569 L 335.89846,287.85246 L 335.93294,287.84996 L 335.968,287.849 L 335.968,287.849 z M 403.1091,289.20824 L 335.968,289.20824 L 335.968,287.849 L 403.1091,287.849 L 403.1091,289.20824 z M 407.89092,288.52862 L 399.62046,291.41431 L 399.72776,291.234 L 399.82812,291.05369 L 399.92155,290.87338 L 400.00805,290.69288 L 400.0878,290.51258 L 400.16042,290.33227 L 400.22611,290.15177 L 400.28506,289.97146 L 400.33688,289.79115 L 400.38195,289.61084 L 400.42009,289.43034 L 400.45111,289.25004 L 400.47538,289.06973 L 400.49272,288.88942 L 400.50312,288.70892 L 400.50659,288.52861 L 400.50312,288.3483 L 400.49272,288.1678 L 400.47538,287.9875 L 400.45111,287.80719 L 400.42009,287.62688 L 400.38195,287.44638 L 400.33688,287.26607 L 400.28506,287.08576 L 400.22611,286.90546 L 400.16042,286.72496 L 400.0878,286.54465 L 400.00805,286.36434 L 399.92155,286.18384 L 399.82812,286.00353 L 399.72776,285.82322 L 399.62046,285.64292 L 399.62046,285.64292 L 407.89092,288.52861 L 407.89092,288.52862 z M 403.1091,289.20824 L 403.1091,287.849 L 403.14416,287.84996 L 403.17864,287.85247 L 403.21255,287.8569 L 403.24606,287.86287 L 403.27901,287.87038 L 403.31118,287.87963 L 403.34277,287.89022 L 403.37359,287.90236 L 403.40364,287.91604 L 403.43292,287.93106 L 403.46143,287.94744 L 403.48898,287.96516 L 403.51576,287.98404 L 403.54138,288.00426 L 403.56603,288.02565 L 403.58973,288.04819 L 403.61207,288.07169 L 403.63346,288.09635 L 403.65368,288.12197 L 403.67256,288.14874 L 403.69028,288.17629 L 403.70666,288.2048 L 403.72168,288.23408 L 403.73536,288.26413 L 403.7475,288.29495 L 403.75809,288.32655 L 403.76734,288.35872 L 403.77485,288.39166 L 403.78082,288.42518 L 403.78525,288.45908 L 403.78776,288.49356 L 403.78872,288.52862 L 403.78776,288.56368 L 403.78525,288.59816 L 403.78082,288.63207 L 403.77485,288.66559 L 403.76734,288.69853 L 403.75809,288.7307 L 403.7475,288.76229 L 403.73536,288.79311 L 403.72168,288.82316 L 403.70666,288.85244 L 403.69028,288.88095 L 403.67256,288.9085 L 403.65368,288.93528 L 403.63346,288.9609 L 403.61207,288.98555 L 403.58973,289.00925 L 403.56603,289.03159 L 403.54138,289.05298 L 403.51576,289.0732 L 403.48898,289.09208 L 403.46143,289.10981 L 403.43292,289.12618 L 403.40364,289.14121 L 403.37359,289.15488 L 403.34277,289.16702 L 403.31118,289.17761 L 403.27901,289.18686 L 403.24606,289.19437 L 403.21255,289.20034 L 403.17864,289.20478 L 403.14416,289.20728 L 403.1091,289.20824 L 403.1091,289.20824 z " id="path2376" style="fill:#1f1a17;fill-rule:nonzero"/>
   </g><g id="g2378">
    <path class="fil4" d="M 740.215,108.848 L 740.215,110.20724 L 740.17994,110.20628 L 740.14546,110.20377 L 740.11155,110.19934 L 740.07804,110.19337 L 740.04509,110.18586 L 740.01292,110.17661 L 739.98133,110.16602 L 739.95051,110.15388 L 739.92046,110.1402 L 739.89118,110.12518 L 739.86267,110.1088 L 739.83512,110.09108 L 739.80834,110.0722 L 739.78272,110.05198 L 739.75807,110.03059 L 739.73456,110.00805 L 739.71203,109.98455 L 739.69064,109.95989 L 739.67042,109.93427 L 739.65154,109.9075 L 739.63382,109.87995 L 739.61744,109.85144 L 739.60242,109.82216 L 739.58874,109.79211 L 739.5766,109.76129 L 739.56601,109.72969 L 739.55676,109.69752 L 739.54925,109.66458 L 739.54328,109.63106 L 739.53885,109.59716 L 739.53634,109.56268 L 739.53538,109.52762 L 739.53634,109.49256 L 739.53885,109.45808 L 739.54328,109.42417 L 739.54925,109.39065 L 739.55676,109.35771 L 739.56601,109.32554 L 739.5766,109.29395 L 739.58874,109.26313 L 739.60242,109.23308 L 739.61744,109.2038 L 739.63382,109.17529 L 739.65154,109.14774 L 739.67042,109.12096 L 739.69064,109.09534 L 739.71203,109.07069 L 739.73456,109.04699 L 739.75807,109.02465 L 739.78272,109.00326 L 739.80834,108.98304 L 739.83512,108.96416 L 739.86267,108.94643 L 739.89118,108.93006 L 739.92046,108.91503 L 739.95051,108.90136 L 739.98133,108.88922 L 740.01292,108.87863 L 740.04509,108.86938 L 740.07804,108.86187 L 740.11155,108.8559 L 740.14546,108.85146 L 740.17994,108.84896 L 740.215,108.848 L 740.215,108.848 z M 771.473,109.52762 L 770.79608,110.20724 L 740.21508,110.20724 L 740.21508,108.848 L 770.79608,108.848 L 771.473,109.52762 L 771.473,109.52762 z M 770.79608,110.20724 L 770.79608,108.848 L 770.83113,108.84897 L 770.86562,108.85147 L 770.89952,108.8559 L 770.93304,108.86187 L 770.96598,108.86938 L 770.99815,108.87863 L 771.02974,108.88923 L 771.06056,108.90136 L 771.09062,108.91504 L 771.1199,108.93007 L 771.14841,108.94644 L 771.17595,108.96416 L 771.20273,108.98304 L 771.22835,109.00327 L 771.25301,109.02465 L 771.2767,109.047 L 771.29905,109.07069 L 771.32043,109.09535 L 771.34066,109.12097 L 771.35954,109.14774 L 771.37726,109.17529 L 771.39363,109.2038 L 771.40866,109.23308 L 771.42234,109.26313 L 771.43447,109.29396 L 771.44507,109.32555 L 771.45431,109.35772 L 771.46183,109.39066 L 771.4678,109.42418 L 771.47223,109.45808 L 771.47473,109.49256 L 771.4757,109.52762 L 771.47473,109.56268 L 771.47223,109.59716 L 771.4678,109.63107 L 771.46183,109.66459 L 771.45431,109.69753 L 771.44507,109.7297 L 771.43447,109.76129 L 771.42234,109.79211 L 771.40866,109.82216 L 771.39363,109.85144 L 771.37726,109.87996 L 771.35954,109.9075 L 771.34066,109.93428 L 771.32043,109.9599 L 771.29905,109.98456 L 771.2767,110.00806 L 771.25301,110.0306 L 771.22835,110.05198 L 771.20273,110.07221 L 771.17595,110.09108 L 771.14841,110.10881 L 771.1199,110.12518 L 771.09062,110.14021 L 771.06056,110.15388 L 771.02974,110.16602 L 770.99815,110.17662 L 770.96598,110.18586 L 770.93304,110.19337 L 770.89952,110.19935 L 770.86562,110.20378 L 770.83113,110.20628 L 770.79608,110.20724 L 770.79608,110.20724 z M 770.79588,166.58174 L 770.11896,165.90482 L 770.11915,109.52762 L 771.473,109.52762 L 771.47281,165.90482 L 770.79588,166.58174 z M 770.11896,165.90482 L 771.47281,165.90482 L 771.47184,165.93968 L 771.46934,165.97397 L 771.46491,166.00788 L 771.45913,166.0412 L 771.45142,166.07395 L 771.44237,166.10612 L 771.43178,166.13752 L 771.41964,166.16815 L 771.40596,166.1982 L 771.39113,166.22748 L 771.37476,166.2558 L 771.35723,166.28315 L 771.33835,166.30974 L 771.31812,166.33536 L 771.29693,166.35982 L 771.27458,166.38333 L 771.25089,166.40586 L 771.22643,166.42705 L 771.2008,166.44728 L 771.17422,166.46616 L 771.14687,166.48369 L 771.11855,166.50006 L 771.08927,166.5149 L 771.05941,166.52857 L 771.02859,166.54071 L 770.99719,166.5513 L 770.96502,166.56036 L 770.93227,166.56806 L 770.89894,166.57384 L 770.86504,166.57827 L 770.83075,166.58078 L 770.79588,166.58174 L 770.76102,166.58078 L 770.72673,166.57827 L 770.69282,166.57384 L 770.6595,166.56806 L 770.62675,166.56036 L 770.59458,166.5513 L 770.56318,166.54071 L 770.53255,166.52857 L 770.5025,166.5149 L 770.47322,166.50006 L 770.4449,166.48369 L 770.41754,166.46616 L 770.39096,166.44728 L 770.36534,166.42705 L 770.34088,166.40586 L 770.31737,166.38333 L 770.29484,166.35982 L 770.27365,166.33536 L 770.25342,166.30974 L 770.23454,166.28315 L 770.21701,166.2558 L 770.20064,166.22748 L 770.1858,166.1982 L 770.17213,166.16815 L 770.15999,166.13752 L 770.1494,166.10612 L 770.14034,166.07395 L 770.13264,166.0412 L 770.12686,166.00788 L 770.12243,165.97397 L 770.11992,165.93968 L 770.11896,165.90482 L 770.11896,165.90482 z M 138.88596,165.90482 L 139.56288,165.22789 L 770.79588,165.22789 L 770.79588,166.58174 L 139.56288,166.58174 L 138.88596,165.90482 L 138.88596,165.90482 z M 139.56288,165.22789 L 139.56288,166.58174 L 139.52802,166.58078 L 139.49373,166.57827 L 139.45982,166.57384 L 139.4265,166.56806 L 139.39375,166.56036 L 139.36158,166.55131 L 139.33018,166.54071 L 139.29936,166.52857 L 139.2695,166.5149 L 139.24022,166.50006 L 139.2119,166.48369 L 139.18454,166.46616 L 139.15796,166.44728 L 139.13234,166.42705 L 139.10788,166.40586 L 139.08418,166.38333 L 139.06183,166.35982 L 139.04064,166.33536 L 139.02042,166.30974 L 139.00154,166.28316 L 138.98401,166.2558 L 138.96764,166.22748 L 138.9528,166.1982 L 138.93913,166.16815 L 138.92699,166.13752 L 138.91639,166.10612 L 138.90734,166.07395 L 138.89964,166.0412 L 138.89386,166.00788 L 138.88943,165.97397 L 138.88692,165.93968 L 138.88596,165.90482 L 138.88692,165.86995 L 138.88943,165.83566 L 138.89386,165.80176 L 138.89964,165.76843 L 138.90734,165.73568 L 138.91639,165.70351 L 138.92699,165.67211 L 138.93913,165.64129 L 138.9528,165.61143 L 138.96764,165.58215 L 138.98401,165.55383 L 139.00154,165.52648 L 139.02042,165.4999 L 139.04064,165.47428 L 139.06183,165.44981 L 139.08418,165.42612 L 139.10788,165.40377 L 139.13234,165.38258 L 139.15796,165.36235 L 139.18454,165.34347 L 139.2119,165.32595 L 139.24022,165.30957 L 139.2695,165.29474 L 139.29936,165.28106 L 139.33018,165.26892 L 139.36158,165.25833 L 139.39375,165.24928 L 139.4265,165.24157 L 139.45982,165.23579 L 139.49373,165.23136 L 139.52802,165.22886 L 139.56288,165.22789 L 139.56288,165.22789 z M 139.56288,289.20689 L 138.88596,288.52727 L 138.88596,165.90427 L 140.23981,165.90427 L 140.23981,288.52727 L 139.56288,289.20689 L 139.56288,289.20689 z M 138.88596,288.52727 L 140.23981,288.52727 L 140.23884,288.56214 L 140.23634,288.59643 L 140.23191,288.63033 L 140.22613,288.66366 L 140.21842,288.69641 L 140.20937,288.72858 L 140.19878,288.75998 L 140.18664,288.7908 L 140.17296,288.82066 L 140.15813,288.84994 L 140.14176,288.87825 L 140.12423,288.90561 L 140.10535,288.93219 L 140.08512,288.95781 L 140.06393,288.98228 L 140.04139,289.00597 L 140.01789,289.02832 L 139.99343,289.04951 L 139.9678,289.06974 L 139.94122,289.08861 L 139.91387,289.10614 L 139.88555,289.12252 L 139.85627,289.13735 L 139.82622,289.15103 L 139.79559,289.16316 L 139.76419,289.17376 L 139.73202,289.18281 L 139.69927,289.19052 L 139.66594,289.1963 L 139.63204,289.20073 L 139.59775,289.20323 L 139.56288,289.2042 L 139.52802,289.20323 L 139.49373,289.20073 L 139.45982,289.1963 L 139.4265,289.19052 L 139.39375,289.18281 L 139.36158,289.17376 L 139.33018,289.16316 L 139.29936,289.15103 L 139.2695,289.13735 L 139.24022,289.12252 L 139.2119,289.10614 L 139.18454,289.08861 L 139.15796,289.06974 L 139.13234,289.04951 L 139.10788,289.02832 L 139.08418,289.00597 L 139.06184,288.98228 L 139.04065,288.95781 L 139.02042,288.93219 L 139.00154,288.90561 L 138.98401,288.87825 L 138.96764,288.84994 L 138.9528,288.82066 L 138.93913,288.7908 L 138.92699,288.75998 L 138.9164,288.72858 L 138.90734,288.69641 L 138.89964,288.66366 L 138.89386,288.63033 L 138.88943,288.59643 L 138.88692,288.56214 L 138.88596,288.52727 L 138.88596,288.52727 z M 191.32666,289.20689 L 139.56296,289.20689 L 139.56296,287.84765 L 191.32666,287.84765 L 191.32666,289.20689 z M 196.10848,288.52727 L 187.83802,291.41296 L 187.94532,291.23265 L 188.04568,291.05234 L 188.13911,290.87204 L 188.2256,290.69154 L 188.30535,290.51123 L 188.37798,290.33092 L 188.44367,290.15042 L 188.50261,289.97011 L 188.55443,289.7898 L 188.59951,289.6095 L 188.63765,289.429 L 188.66867,289.24869 L 188.69294,289.06838 L 188.71028,288.88807 L 188.72068,288.70757 L 188.72415,288.52726 L 188.72068,288.34696 L 188.71028,288.16646 L 188.69294,287.98615 L 188.66867,287.80584 L 188.63765,287.62553 L 188.59951,287.44503 L 188.55443,287.26472 L 188.50261,287.08442 L 188.44367,286.90411 L 188.37798,286.72361 L 188.30535,286.5433 L 188.2256,286.36299 L 188.13911,286.18249 L 188.04568,286.00218 L 187.94532,285.82188 L 187.83802,285.64157 L 187.83802,285.64157 L 196.10848,288.52726 L 196.10848,288.52727 z M 191.32666,289.20689 L 191.32666,287.84765 L 191.36172,287.84862 L 191.3962,287.85112 L 191.4301,287.85555 L 191.46362,287.86152 L 191.49656,287.86903 L 191.52873,287.87828 L 191.56033,287.88888 L 191.59115,287.90101 L 191.6212,287.91469 L 191.65048,287.92972 L 191.67899,287.94609 L 191.70654,287.96381 L 191.73331,287.98269 L 191.75893,288.00292 L 191.78359,288.0243 L 191.80709,288.04684 L 191.82963,288.07034 L 191.85101,288.095 L 191.87124,288.12062 L 191.89012,288.14739 L 191.90784,288.17494 L 191.92422,288.20345 L 191.93924,288.23273 L 191.95292,288.26278 L 191.96505,288.29361 L 191.97565,288.3252 L 191.9849,288.35737 L 191.99241,288.39031 L 191.99838,288.42383 L 192.00281,288.45773 L 192.00532,288.49221 L 192.00628,288.52727 L 192.00532,288.56233 L 192.00281,288.59681 L 191.99838,288.63072 L 191.99241,288.66424 L 191.9849,288.69718 L 191.97565,288.72935 L 191.96505,288.76094 L 191.95292,288.79176 L 191.93924,288.82181 L 191.92422,288.85109 L 191.90784,288.87961 L 191.89012,288.90715 L 191.87124,288.93393 L 191.85101,288.95955 L 191.82963,288.98421 L 191.80709,289.0079 L 191.78359,289.03025 L 191.75893,289.05163 L 191.73331,289.07186 L 191.70654,289.09073 L 191.67899,289.10846 L 191.65048,289.12483 L 191.6212,289.13986 L 191.59115,289.15353 L 191.56033,289.16567 L 191.52873,289.17627 L 191.49656,289.18551 L 191.46362,289.19302 L 191.4301,289.199 L 191.3962,289.20343 L 191.36172,289.20593 L 191.32666,289.20689 L 191.32666,289.20689 z " id="path2380" style="fill:#1f1a17;fill-rule:nonzero"/>
   </g><rect class="fil1" x="398.233" y="79.829697" width="139.86" height="62.1735" id="rect2382" style="fill:#ede060"/><text x="411.504" y="116.491" class="fil2 fnt0" id="text2384" style="font-size:14.9506999px;font-style:normal;font-weight:normal;fill:#1f1a17;font-family:DejaVu Sans;font-stretch:normal;font-variant:normal;text-anchor:start;text-align:start;writing-mode:lr;line-height:125%" sodipodi:linespacing="125%">Transformation</text>

<g id="g2386">
    <path class="fil4" d="M 335.968,111.625 L 335.968,112.98424 L 335.93294,112.98328 L 335.89846,112.98077 L 335.86455,112.97634 L 335.83104,112.97037 L 335.79809,112.96286 L 335.76592,112.95361 L 335.73433,112.94302 L 335.70351,112.93088 L 335.67346,112.9172 L 335.64418,112.90218 L 335.61567,112.8858 L 335.58812,112.86808 L 335.56134,112.8492 L 335.53572,112.82898 L 335.51107,112.80759 L 335.48737,112.78505 L 335.46503,112.76155 L 335.44364,112.73689 L 335.42342,112.71127 L 335.40454,112.6845 L 335.38682,112.65695 L 335.37044,112.62844 L 335.35542,112.59916 L 335.34174,112.56911 L 335.3296,112.53829 L 335.31901,112.50669 L 335.30976,112.47452 L 335.30225,112.44158 L 335.29628,112.40806 L 335.29185,112.37416 L 335.28934,112.33968 L 335.28838,112.30462 L 335.28934,112.26956 L 335.29185,112.23508 L 335.29628,112.20117 L 335.30225,112.16765 L 335.30976,112.13471 L 335.31901,112.10254 L 335.3296,112.07095 L 335.34174,112.04013 L 335.35542,112.01008 L 335.37044,111.9808 L 335.38682,111.95229 L 335.40454,111.92474 L 335.42342,111.89796 L 335.44364,111.87234 L 335.46503,111.84769 L 335.48737,111.82399 L 335.51107,111.80165 L 335.53572,111.78026 L 335.56134,111.76004 L 335.58812,111.74116 L 335.61567,111.72343 L 335.64418,111.70706 L 335.67346,111.69203 L 335.70351,111.67836 L 335.73433,111.66622 L 335.76592,111.65563 L 335.79809,111.64638 L 335.83104,111.63887 L 335.86455,111.6329 L 335.89846,111.62846 L 335.93294,111.62596 L 335.968,111.625 L 335.968,111.625 z M 393.4503,112.98424 L 335.968,112.98424 L 335.968,111.625 L 393.4503,111.625 L 393.4503,112.98424 z M 398.23212,112.30462 L 389.96166,115.19031 L 390.06896,115.01 L 390.16932,114.82969 L 390.26275,114.64939 L 390.34925,114.46889 L 390.429,114.28858 L 390.50162,114.10827 L 390.56731,113.92777 L 390.62626,113.74746 L 390.67808,113.56715 L 390.72315,113.38685 L 390.76129,113.20635 L 390.79231,113.02604 L 390.81658,112.84573 L 390.83392,112.66542 L 390.84432,112.48492 L 390.84779,112.30461 L 390.84432,112.12431 L 390.83392,111.94381 L 390.81658,111.7635 L 390.79231,111.58319 L 390.76129,111.40288 L 390.72315,111.22238 L 390.67808,111.04207 L 390.62626,110.86177 L 390.56731,110.68146 L 390.50162,110.50096 L 390.429,110.32065 L 390.34925,110.14034 L 390.26275,109.95984 L 390.16932,109.77953 L 390.06896,109.59923 L 389.96166,109.41892 L 389.96166,109.41892 L 398.23212,112.30461 L 398.23212,112.30462 z M 393.4503,112.98424 L 393.4503,111.625 L 393.48536,111.62596 L 393.51984,111.62847 L 393.55375,111.6329 L 393.58726,111.63887 L 393.62021,111.64638 L 393.65238,111.65563 L 393.68397,111.66622 L 393.71479,111.67836 L 393.74484,111.69204 L 393.77412,111.70706 L 393.80263,111.72344 L 393.83018,111.74116 L 393.85696,111.76004 L 393.88258,111.78026 L 393.90723,111.80165 L 393.93074,111.82399 L 393.95327,111.84769 L 393.97466,111.87235 L 393.99488,111.89797 L 394.01376,111.92474 L 394.03148,111.95229 L 394.04786,111.9808 L 394.06288,112.01008 L 394.07656,112.04013 L 394.0887,112.07095 L 394.09929,112.10255 L 394.10854,112.13472 L 394.11605,112.16766 L 394.12202,112.20118 L 394.12645,112.23508 L 394.12896,112.26956 L 394.12992,112.30462 L 394.12896,112.33968 L 394.12645,112.37416 L 394.12202,112.40807 L 394.11605,112.44159 L 394.10854,112.47453 L 394.09929,112.5067 L 394.0887,112.53829 L 394.07656,112.56911 L 394.06288,112.59916 L 394.04786,112.62844 L 394.03148,112.65695 L 394.01376,112.6845 L 393.99488,112.71128 L 393.97466,112.7369 L 393.95327,112.76155 L 393.93074,112.78506 L 393.90723,112.80759 L 393.88258,112.82898 L 393.85696,112.8492 L 393.83018,112.86808 L 393.80263,112.88581 L 393.77412,112.90218 L 393.74484,112.91721 L 393.71479,112.93088 L 393.68397,112.94302 L 393.65238,112.95361 L 393.62021,112.96286 L 393.58726,112.97037 L 393.55375,112.97634 L 393.51984,112.98078 L 393.48536,112.98328 L 393.4503,112.98424 L 393.4503,112.98424 z " id="path2388" style="fill:#1f1a17;fill-rule:nonzero"/>
   </g><rect class="fil1" x="600.35602" y="78.441399" width="139.86" height="62.1735" id="rect2390" style="fill:#ede060"/><text x="613.62799" y="115.102" class="fil2 fnt0" id="text2392" style="font-size:14.9506999px;font-style:normal;font-weight:normal;fill:#1f1a17;font-family:DejaVu Sans;font-stretch:normal;font-variant:normal;text-anchor:start;text-align:start;writing-mode:lr;line-height:125%" sodipodi:linespacing="125%">Transformation</text>

<g id="g2394">
    <path class="fil4" d="M 538.092,110.237 L 538.092,111.59624 L 538.05694,111.59528 L 538.02246,111.59277 L 537.98855,111.58834 L 537.95504,111.58237 L 537.92209,111.57486 L 537.88992,111.56561 L 537.85833,111.55502 L 537.82751,111.54288 L 537.79746,111.5292 L 537.76818,111.51418 L 537.73967,111.4978 L 537.71212,111.48008 L 537.68534,111.4612 L 537.65972,111.44098 L 537.63507,111.41959 L 537.61156,111.39705 L 537.58903,111.37355 L 537.56764,111.34889 L 537.54742,111.32327 L 537.52854,111.2965 L 537.51082,111.26895 L 537.49444,111.24044 L 537.47942,111.21116 L 537.46574,111.18111 L 537.4536,111.15029 L 537.44301,111.11869 L 537.43376,111.08652 L 537.42625,111.05358 L 537.42028,111.02006 L 537.41585,110.98616 L 537.41334,110.95168 L 537.41238,110.91662 L 537.41334,110.88156 L 537.41585,110.84708 L 537.42028,110.81317 L 537.42625,110.77965 L 537.43376,110.74671 L 537.44301,110.71454 L 537.4536,110.68295 L 537.46574,110.65213 L 537.47942,110.62208 L 537.49444,110.5928 L 537.51082,110.56429 L 537.52854,110.53674 L 537.54742,110.50996 L 537.56764,110.48434 L 537.58903,110.45969 L 537.61156,110.43599 L 537.63507,110.41365 L 537.65972,110.39226 L 537.68534,110.37204 L 537.71212,110.35316 L 537.73967,110.33543 L 537.76818,110.31906 L 537.79746,110.30403 L 537.82751,110.29036 L 537.85833,110.27822 L 537.88992,110.26763 L 537.92209,110.25838 L 537.95504,110.25087 L 537.98855,110.2449 L 538.02246,110.24046 L 538.05694,110.23796 L 538.092,110.237 L 538.092,110.237 z M 595.5743,111.59624 L 538.092,111.59624 L 538.092,110.237 L 595.5743,110.237 L 595.5743,111.59624 z M 600.35612,110.91662 L 592.08566,113.80231 L 592.19296,113.622 L 592.29332,113.44169 L 592.38675,113.26139 L 592.47325,113.08089 L 592.553,112.90058 L 592.62562,112.72027 L 592.69131,112.53977 L 592.75026,112.35946 L 592.80208,112.17915 L 592.84715,111.99885 L 592.88529,111.81835 L 592.91631,111.63804 L 592.94058,111.45773 L 592.95792,111.27742 L 592.96832,111.09692 L 592.97179,110.91661 L 592.96832,110.73631 L 592.95792,110.55581 L 592.94058,110.3755 L 592.91631,110.19519 L 592.88529,110.01488 L 592.84715,109.83438 L 592.80208,109.65407 L 592.75026,109.47377 L 592.69131,109.29346 L 592.62562,109.11296 L 592.553,108.93265 L 592.47325,108.75234 L 592.38675,108.57184 L 592.29332,108.39153 L 592.19296,108.21123 L 592.08566,108.03092 L 592.08566,108.03092 L 600.35612,110.91661 L 600.35612,110.91662 z M 595.5743,111.59624 L 595.5743,110.237 L 595.60936,110.23796 L 595.64384,110.24047 L 595.67775,110.2449 L 595.71126,110.25087 L 595.74421,110.25838 L 595.77638,110.26763 L 595.80797,110.27822 L 595.83879,110.29036 L 595.86884,110.30404 L 595.89812,110.31906 L 595.92663,110.33544 L 595.95418,110.35316 L 595.98096,110.37204 L 596.00658,110.39226 L 596.03123,110.41365 L 596.05493,110.43599 L 596.07727,110.45969 L 596.09866,110.48435 L 596.11888,110.50997 L 596.13776,110.53674 L 596.15548,110.56429 L 596.17186,110.5928 L 596.18688,110.62208 L 596.20056,110.65213 L 596.2127,110.68295 L 596.22329,110.71455 L 596.23254,110.74672 L 596.24005,110.77966 L 596.24602,110.81318 L 596.25045,110.84708 L 596.25296,110.88156 L 596.25392,110.91662 L 596.25296,110.95168 L 596.25045,110.98616 L 596.24602,111.02007 L 596.24005,111.05359 L 596.23254,111.08653 L 596.22329,111.1187 L 596.2127,111.15029 L 596.20056,111.18111 L 596.18688,111.21116 L 596.17186,111.24044 L 596.15548,111.26895 L 596.13776,111.2965 L 596.11888,111.32328 L 596.09866,111.3489 L 596.07727,111.37355 L 596.05493,111.39706 L 596.03123,111.41959 L 596.00658,111.44098 L 595.98096,111.4612 L 595.95418,111.48008 L 595.92663,111.49781 L 595.89812,111.51418 L 595.86884,111.52921 L 595.83879,111.54288 L 595.80797,111.55502 L 595.77638,111.56561 L 595.74421,111.57486 L 595.71126,111.58237 L 595.67775,111.58834 L 595.64384,111.59278 L 595.60936,111.59528 L 595.5743,111.59624 L 595.5743,111.59624 z " id="path2396" style="fill:#1f1a17;fill-rule:nonzero"/>
   </g><text x="90.255997" y="49.693298" class="fil2 fnt1" id="text2398" style="font-size:16.30999947px;font-weight:normal;fill:#1f1a17;font-family:DejaVu Sans">Objektkoordinaten</text>

<g id="g2400">
    <path class="fil4" d="M 162.269,113.693 L 162.27247,113.55411 L 162.28306,113.41714 L 162.30021,113.28211 L 162.32409,113.14899 L 162.35453,113.01839 L 162.39094,112.89009 L 162.4337,112.76449 L 162.48225,112.64159 L 162.53657,112.52177 L 162.59648,112.40503 L 162.66179,112.29176 L 162.73229,112.18177 L 162.808,112.07562 L 162.88852,111.97314 L 162.97366,111.8749 L 163.06343,111.7807 L 163.15744,111.69093 L 163.25588,111.60559 L 163.35817,111.52507 L 163.46431,111.44936 L 163.5743,111.37866 L 163.68757,111.31336 L 163.80431,111.25345 L 163.92413,111.19893 L 164.04703,111.15039 L 164.17283,111.10762 L 164.30112,111.07083 L 164.43192,111.04059 L 164.56523,111.0167 L 164.70046,110.99936 L 164.83761,110.98877 L 164.9767,110.9853 L 164.9767,110.9853 L 165.11578,110.98877 L 165.25294,110.99936 L 165.38817,111.0167 L 165.52147,111.04059 L 165.65227,111.07083 L 165.78057,111.10762 L 165.90636,111.15039 L 166.02926,111.19893 L 166.14908,111.25345 L 166.26582,111.31336 L 166.37929,111.37866 L 166.48909,111.44936 L 166.59523,111.52507 L 166.69752,111.60559 L 166.79596,111.69093 L 166.88997,111.7807 L 166.97973,111.8749 L 167.06488,111.97314 L 167.1454,112.07562 L 167.22111,112.18177 L 167.29161,112.29176 L 167.35692,112.40503 L 167.41683,112.52177 L 167.47115,112.64159 L 167.51969,112.76449 L 167.56246,112.89009 L 167.59887,113.01839 L 167.6293,113.14919 L 167.65319,113.28211 L 167.67034,113.41714 L 167.68093,113.5543 L 167.6844,113.693 L 167.6844,113.693 L 167.68093,113.83189 L 167.67034,113.96885 L 167.65319,114.10389 L 167.6293,114.237 L 167.59887,114.36761 L 167.56246,114.49591 L 167.51969,114.62151 L 167.47115,114.74441 L 167.41683,114.86423 L 167.35692,114.98097 L 167.29161,115.09424 L 167.22111,115.20423 L 167.1454,115.31037 L 167.06488,115.41286 L 166.97973,115.5111 L 166.88997,115.6053 L 166.79596,115.69507 L 166.69752,115.78041 L 166.59523,115.86093 L 166.48909,115.93664 L 166.37909,116.00733 L 166.26582,116.07264 L 166.14909,116.13255 L 166.02927,116.18706 L 165.90636,116.23561 L 165.78057,116.27837 L 165.65228,116.31517 L 165.52148,116.34541 L 165.38817,116.3693 L 165.25294,116.38664 L 165.11578,116.39723 L 164.9767,116.4007 L 164.9767,116.4007 L 164.83762,116.39723 L 164.70046,116.38664 L 164.56523,116.3693 L 164.43192,116.34541 L 164.30112,116.31517 L 164.17283,116.27837 L 164.04704,116.23561 L 163.92413,116.18706 L 163.80431,116.13255 L 163.68758,116.07264 L 163.57411,116.00733 L 163.46431,115.93664 L 163.35817,115.86093 L 163.25588,115.78041 L 163.15744,115.69507 L 163.06343,115.6053 L 162.97366,115.5111 L 162.88852,115.41286 L 162.808,115.31037 L 162.73229,115.20423 L 162.66179,115.09424 L 162.59648,114.98097 L 162.53657,114.86423 L 162.48225,114.74441 L 162.4337,114.62151 L 162.39094,114.49591 L 162.35453,114.36761 L 162.32409,114.23681 L 162.30021,114.10389 L 162.28306,113.96886 L 162.27247,113.8317 L 162.269,113.693 L 162.269,113.693 z M 164.29977,113.693 L 165.65362,113.693 L 165.65266,113.72787 L 165.65015,113.76216 L 165.64572,113.79606 L 165.63994,113.82939 L 165.63224,113.86213 L 165.62318,113.89431 L 165.61259,113.9257 L 165.60045,113.95633 L 165.58678,113.98639 L 165.57194,114.01567 L 165.55557,114.04398 L 165.53804,114.07134 L 165.51916,114.09792 L 165.49893,114.12354 L 165.47774,114.14801 L 165.4552,114.17151 L 165.4317,114.19405 L 165.40724,114.21524 L 165.38162,114.23546 L 165.35503,114.25434 L 165.32768,114.27187 L 165.29936,114.28825 L 165.27008,114.30308 L 165.24003,114.31676 L 165.2094,114.32889 L 165.178,114.33949 L 165.14583,114.34854 L 165.11308,114.35625 L 165.07976,114.36203 L 165.04585,114.36646 L 165.01156,114.36896 L 164.9767,114.36992 L 164.94183,114.36896 L 164.90754,114.36646 L 164.87364,114.36203 L 164.84031,114.35625 L 164.80756,114.34854 L 164.77539,114.33949 L 164.74399,114.32889 L 164.71317,114.31676 L 164.68331,114.30308 L 164.65403,114.28825 L 164.62571,114.27187 L 164.59836,114.25434 L 164.57177,114.23546 L 164.54615,114.21524 L 164.52169,114.19405 L 164.49799,114.17151 L 164.47565,114.14801 L 164.45446,114.12354 L 164.43423,114.09792 L 164.41535,114.07134 L 164.39782,114.04398 L 164.38145,114.01567 L 164.36662,113.98639 L 164.35294,113.95633 L 164.3408,113.9257 L 164.33021,113.89431 L 164.32115,113.86213 L 164.31345,113.82939 L 164.30767,113.79606 L 164.30324,113.76216 L 164.30073,113.72787 L 164.29977,113.693 L 164.29977,113.693 z M 165.65381,61.6089 L 165.65362,113.693 L 164.29977,113.693 L 164.29996,61.6089 L 165.65381,61.6089 z M 165.65381,61.6089 L 164.29996,61.6089 L 164.30092,61.574033 L 164.30343,61.539744 L 164.30786,61.50584 L 164.31364,61.472513 L 164.32134,61.439765 L 164.3304,61.407595 L 164.34099,61.376195 L 164.35313,61.345373 L 164.3668,61.315515 L 164.38164,61.286234 L 164.39801,61.257916 L 164.41554,61.230562 L 164.43442,61.203978 L 164.45465,61.178358 L 164.47584,61.153893 L 164.49818,61.130198 L 164.52188,61.107853 L 164.54634,61.086663 L 164.57196,61.066436 L 164.59855,61.047557 L 164.6259,61.030028 L 164.65422,61.013653 L 164.6835,60.99882 L 164.71336,60.985143 L 164.74418,60.973007 L 164.77558,60.962412 L 164.80775,60.953358 L 164.8405,60.945653 L 164.87382,60.939874 L 164.90773,60.935443 L 164.94202,60.932939 L 164.97688,60.931976 L 165.01175,60.932939 L 165.04604,60.935443 L 165.07994,60.939874 L 165.11327,60.945653 L 165.14602,60.953358 L 165.17819,60.962412 L 165.20959,60.973007 L 165.24022,60.985143 L 165.27027,60.99882 L 165.29955,61.013653 L 165.32787,61.030028 L 165.35522,61.047557 L 165.38181,61.066436 L 165.40743,61.086663 L 165.43189,61.107853 L 165.45539,61.130198 L 165.47793,61.153893 L 165.49912,61.178358 L 165.51935,61.203978 L 165.53823,61.230562 L 165.55576,61.257916 L 165.57213,61.286234 L 165.58696,61.315515 L 165.60064,61.345373 L 165.61278,61.376195 L 165.62337,61.407595 L 165.63243,61.439765 L 165.64013,61.472513 L 165.64591,61.50584 L 165.65034,61.539744 L 165.65285,61.574033 L 165.65381,61.6089 L 165.65381,61.6089 z " id="path2402" style="fill:#1f1a17;fill-rule:nonzero"/>
   </g><text x="301.11301" y="49.693298" class="fil2 fnt1" id="text2404" style="font-size:16.30999947px;font-weight:normal;fill:#1f1a17;font-family:DejaVu Sans">Weltkoordinaten</text>

<g id="g2406">
    <path class="fil4" d="M 364.393,112.305 L 364.39647,112.16611 L 364.40706,112.02914 L 364.42421,111.89411 L 364.44809,111.76099 L 364.47853,111.63039 L 364.51494,111.50209 L 364.5577,111.37649 L 364.60625,111.25359 L 364.66057,111.13377 L 364.72048,111.01703 L 364.78579,110.90376 L 364.85629,110.79377 L 364.932,110.68762 L 365.01252,110.58514 L 365.09766,110.4869 L 365.18743,110.3927 L 365.28144,110.30293 L 365.37988,110.21759 L 365.48217,110.13707 L 365.58831,110.06136 L 365.6983,109.99066 L 365.81157,109.92536 L 365.92831,109.86545 L 366.04813,109.81093 L 366.17103,109.76239 L 366.29683,109.71962 L 366.42512,109.68283 L 366.55592,109.65259 L 366.68923,109.6287 L 366.82446,109.61136 L 366.96161,109.60077 L 367.1007,109.5973 L 367.1007,109.5973 L 367.23978,109.60077 L 367.37694,109.61136 L 367.51217,109.6287 L 367.64547,109.65259 L 367.77627,109.68283 L 367.90457,109.71962 L 368.03036,109.76239 L 368.15326,109.81093 L 368.27308,109.86545 L 368.38982,109.92536 L 368.50329,109.99066 L 368.61309,110.06136 L 368.71923,110.13707 L 368.82152,110.21759 L 368.91996,110.30293 L 369.01397,110.3927 L 369.10373,110.4869 L 369.18888,110.58514 L 369.2694,110.68762 L 369.34511,110.79377 L 369.41561,110.90376 L 369.48092,111.01703 L 369.54083,111.13377 L 369.59515,111.25359 L 369.64369,111.37649 L 369.68646,111.50209 L 369.72287,111.63039 L 369.7533,111.76119 L 369.77719,111.89411 L 369.79434,112.02914 L 369.80493,112.1663 L 369.8084,112.305 L 369.8084,112.305 L 369.80493,112.44389 L 369.79434,112.58085 L 369.77719,112.71589 L 369.7533,112.849 L 369.72287,112.97961 L 369.68646,113.10791 L 369.64369,113.23351 L 369.59515,113.35641 L 369.54083,113.47623 L 369.48092,113.59297 L 369.41561,113.70624 L 369.34511,113.81623 L 369.2694,113.92238 L 369.18888,114.02486 L 369.10373,114.1231 L 369.01397,114.2173 L 368.91996,114.30707 L 368.82152,114.39241 L 368.71923,114.47293 L 368.61309,114.54864 L 368.50309,114.61933 L 368.38982,114.68464 L 368.27309,114.74455 L 368.15327,114.79906 L 368.03036,114.84761 L 367.90457,114.89037 L 367.77628,114.92717 L 367.64548,114.95741 L 367.51217,114.9813 L 367.37694,114.99864 L 367.23978,115.00923 L 367.1007,115.0127 L 367.1007,115.0127 L 366.96162,115.00923 L 366.82446,114.99864 L 366.68923,114.9813 L 366.55592,114.95741 L 366.42512,114.92717 L 366.29683,114.89037 L 366.17104,114.84761 L 366.04813,114.79906 L 365.92831,114.74455 L 365.81158,114.68464 L 365.69811,114.61933 L 365.58831,114.54864 L 365.48217,114.47293 L 365.37988,114.39241 L 365.28144,114.30707 L 365.18743,114.2173 L 365.09766,114.1231 L 365.01252,114.02486 L 364.932,113.92238 L 364.85629,113.81623 L 364.78579,113.70624 L 364.72048,113.59297 L 364.66057,113.47623 L 364.60625,113.35641 L 364.5577,113.23351 L 364.51494,113.10791 L 364.47853,112.97961 L 364.44809,112.84881 L 364.42421,112.71589 L 364.40706,112.58086 L 364.39647,112.4437 L 364.393,112.305 L 364.393,112.305 z M 366.42377,112.305 L 367.77762,112.305 L 367.77666,112.33987 L 367.77415,112.37416 L 367.76972,112.40806 L 367.76394,112.44139 L 367.75624,112.47413 L 367.74718,112.50631 L 367.73659,112.5377 L 367.72445,112.56833 L 367.71078,112.59839 L 367.69594,112.62767 L 367.67957,112.65598 L 367.66204,112.68334 L 367.64316,112.70992 L 367.62293,112.73554 L 367.60174,112.76001 L 367.5792,112.78351 L 367.5557,112.80605 L 367.53124,112.82724 L 367.50562,112.84746 L 367.47903,112.86634 L 367.45168,112.88387 L 367.42336,112.90025 L 367.39408,112.91508 L 367.36403,112.92876 L 367.3334,112.94089 L 367.302,112.95149 L 367.26983,112.96054 L 367.23708,112.96825 L 367.20376,112.97403 L 367.16985,112.97846 L 367.13556,112.98096 L 367.1007,112.98192 L 367.06583,112.98096 L 367.03154,112.97846 L 366.99764,112.97403 L 366.96431,112.96825 L 366.93156,112.96054 L 366.89939,112.95149 L 366.86799,112.94089 L 366.83717,112.92876 L 366.80731,112.91508 L 366.77803,112.90025 L 366.74971,112.88387 L 366.72236,112.86634 L 366.69577,112.84746 L 366.67015,112.82724 L 366.64569,112.80605 L 366.62199,112.78351 L 366.59965,112.76001 L 366.57846,112.73554 L 366.55823,112.70992 L 366.53935,112.68334 L 366.52182,112.65598 L 366.50545,112.62767 L 366.49062,112.59839 L 366.47694,112.56833 L 366.4648,112.5377 L 366.45421,112.50631 L 366.44515,112.47413 L 366.43745,112.44139 L 366.43167,112.40806 L 366.42724,112.37416 L 366.42473,112.33987 L 366.42377,112.305 L 366.42377,112.305 z M 367.77781,61.6092 L 367.77762,112.305 L 366.42377,112.305 L 366.42396,61.6092 L 367.77781,61.6092 z M 367.77781,61.6092 L 366.42396,61.6092 L 366.42492,61.574333 L 366.42743,61.540044 L 366.43186,61.50614 L 366.43764,61.472813 L 366.44534,61.440065 L 366.4544,61.407895 L 366.46499,61.376495 L 366.47713,61.345673 L 366.4908,61.315815 L 366.50564,61.286534 L 366.52201,61.258216 L 366.53954,61.230862 L 366.55842,61.204278 L 366.57865,61.178658 L 366.59984,61.154193 L 366.62218,61.130498 L 366.64588,61.108153 L 366.67034,61.086963 L 366.69596,61.066736 L 366.72255,61.047857 L 366.7499,61.030328 L 366.77822,61.013953 L 366.8075,60.99912 L 366.83736,60.985443 L 366.86818,60.973307 L 366.89958,60.962712 L 366.93175,60.953658 L 366.9645,60.945953 L 366.99782,60.940174 L 367.03173,60.935743 L 367.06602,60.933239 L 367.10088,60.932276 L 367.13575,60.933239 L 367.17004,60.935743 L 367.20394,60.940174 L 367.23727,60.945953 L 367.27002,60.953658 L 367.30219,60.962712 L 367.33359,60.973307 L 367.36422,60.985443 L 367.39427,60.99912 L 367.42355,61.013953 L 367.45187,61.030328 L 367.47922,61.047857 L 367.50581,61.066736 L 367.53143,61.086963 L 367.55589,61.108153 L 367.57939,61.130498 L 367.60193,61.154193 L 367.62312,61.178658 L 367.64335,61.204278 L 367.66223,61.230862 L 367.67976,61.258216 L 367.69613,61.286534 L 367.71096,61.315815 L 367.72464,61.345673 L 367.73678,61.376495 L 367.74737,61.407895 L 367.75643,61.440065 L 367.76413,61.472813 L 367.76991,61.50614 L 367.77434,61.540044 L 367.77685,61.574333 L 367.77781,61.6092 L 367.77781,61.6092 z " id="path2408" style="fill:#1f1a17;fill-rule:nonzero"/>
   </g><text x="489.78799" y="46.916599" class="fil2 fnt1" id="text2410" style="font-size:16.30999947px;font-weight:normal;fill:#1f1a17;font-family:DejaVu Sans">Kamerakoordinaten</text>

<g id="g2412">
    <path class="fil4" d="M 566.516,110.916 L 566.51947,110.77711 L 566.53006,110.64014 L 566.54721,110.50511 L 566.57109,110.37199 L 566.60153,110.24139 L 566.63794,110.11309 L 566.6807,109.98749 L 566.72925,109.86459 L 566.78357,109.74477 L 566.84348,109.62803 L 566.90879,109.51476 L 566.97929,109.40477 L 567.055,109.29862 L 567.13552,109.19614 L 567.22066,109.0979 L 567.31043,109.0037 L 567.40444,108.91393 L 567.50288,108.82859 L 567.60517,108.74807 L 567.71131,108.67236 L 567.8213,108.60166 L 567.93457,108.53636 L 568.05131,108.47645 L 568.17113,108.42193 L 568.29403,108.37339 L 568.41983,108.33062 L 568.54812,108.29383 L 568.67892,108.26359 L 568.81223,108.2397 L 568.94746,108.22236 L 569.08461,108.21177 L 569.2237,108.2083 L 569.2237,108.2083 L 569.36278,108.21177 L 569.49994,108.22236 L 569.63517,108.2397 L 569.76847,108.26359 L 569.89927,108.29383 L 570.02757,108.33062 L 570.15336,108.37339 L 570.27626,108.42193 L 570.39608,108.47645 L 570.51282,108.53636 L 570.62629,108.60166 L 570.73609,108.67236 L 570.84223,108.74807 L 570.94452,108.82859 L 571.04296,108.91393 L 571.13697,109.0037 L 571.22673,109.0979 L 571.31188,109.19614 L 571.3924,109.29862 L 571.46811,109.40477 L 571.53861,109.51476 L 571.60392,109.62803 L 571.66383,109.74477 L 571.71815,109.86459 L 571.76669,109.98749 L 571.80946,110.11309 L 571.84587,110.24139 L 571.8763,110.37219 L 571.90019,110.50511 L 571.91734,110.64014 L 571.92793,110.7773 L 571.9314,110.916 L 571.9314,110.916 L 571.92793,111.05489 L 571.91734,111.19185 L 571.90019,111.32689 L 571.8763,111.46 L 571.84587,111.59061 L 571.80946,111.71891 L 571.76669,111.84451 L 571.71815,111.96741 L 571.66383,112.08723 L 571.60392,112.20397 L 571.53861,112.31724 L 571.46811,112.42723 L 571.3924,112.53337 L 571.31188,112.63586 L 571.22673,112.7341 L 571.13697,112.8283 L 571.04296,112.91807 L 570.94452,113.00341 L 570.84223,113.08393 L 570.73609,113.15964 L 570.62609,113.23033 L 570.51282,113.29564 L 570.39609,113.35555 L 570.27627,113.41006 L 570.15336,113.45861 L 570.02757,113.50137 L 569.89928,113.53817 L 569.76848,113.56841 L 569.63517,113.5923 L 569.49994,113.60964 L 569.36278,113.62023 L 569.2237,113.6237 L 569.2237,113.6237 L 569.08462,113.62023 L 568.94746,113.60964 L 568.81223,113.5923 L 568.67892,113.56841 L 568.54812,113.53817 L 568.41983,113.50137 L 568.29404,113.45861 L 568.17113,113.41006 L 568.05131,113.35555 L 567.93458,113.29564 L 567.82111,113.23033 L 567.71131,113.15964 L 567.60517,113.08393 L 567.50288,113.00341 L 567.40444,112.91807 L 567.31043,112.8283 L 567.22066,112.7341 L 567.13552,112.63586 L 567.055,112.53337 L 566.97929,112.42723 L 566.90879,112.31724 L 566.84348,112.20397 L 566.78357,112.08723 L 566.72925,111.96741 L 566.6807,111.84451 L 566.63794,111.71891 L 566.60153,111.59061 L 566.57109,111.45981 L 566.54721,111.32689 L 566.53006,111.19186 L 566.51947,111.0547 L 566.516,110.916 L 566.516,110.916 L 566.516,110.916 z M 568.54677,110.916 L 569.90062,110.916 L 569.89966,110.95087 L 569.89715,110.98516 L 569.89272,111.01906 L 569.88694,111.05239 L 569.87924,111.08513 L 569.87018,111.11731 L 569.85959,111.1487 L 569.84745,111.17933 L 569.83378,111.20939 L 569.81894,111.23867 L 569.80257,111.26698 L 569.78504,111.29434 L 569.76616,111.32092 L 569.74593,111.34654 L 569.72474,111.37101 L 569.7024,111.39451 L 569.6787,111.41705 L 569.65424,111.43824 L 569.62862,111.45846 L 569.60203,111.47734 L 569.57468,111.49487 L 569.54636,111.51125 L 569.51708,111.52608 L 569.48722,111.53976 L 569.4564,111.55189 L 569.425,111.56249 L 569.39283,111.57154 L 569.36008,111.57925 L 569.32676,111.58503 L 569.29285,111.58946 L 569.25856,111.59196 L 569.2237,111.59292 L 569.18883,111.59196 L 569.15454,111.58946 L 569.12064,111.58503 L 569.08731,111.57925 L 569.05456,111.57154 L 569.02239,111.56249 L 568.99099,111.55189 L 568.96036,111.53976 L 568.93031,111.52608 L 568.90103,111.51125 L 568.87271,111.49487 L 568.84536,111.47734 L 568.81877,111.45846 L 568.79315,111.43824 L 568.76869,111.41705 L 568.74519,111.39451 L 568.72265,111.37101 L 568.70146,111.34654 L 568.68123,111.32092 L 568.66235,111.29434 L 568.64482,111.26698 L 568.62845,111.23867 L 568.61362,111.20939 L 568.59994,111.17933 L 568.5878,111.1487 L 568.57721,111.11731 L 568.56815,111.08513 L 568.56045,111.05239 L 568.55467,111.01906 L 568.55024,110.98516 L 568.54773,110.95087 L 568.54677,110.916 L 568.54677,110.916 z M 569.90081,61.6086 L 569.90062,110.916 L 568.54677,110.916 L 568.54696,61.6086 L 569.90081,61.6086 z M 569.90081,61.6086 L 568.54696,61.6086 L 568.54792,61.573733 L 568.55043,61.539443 L 568.55486,61.505539 L 568.56064,61.472213 L 568.56834,61.439465 L 568.5774,61.407295 L 568.58799,61.375895 L 568.60013,61.345073 L 568.6138,61.315215 L 568.62864,61.285934 L 568.64501,61.257616 L 568.66254,61.230262 L 568.68142,61.203678 L 568.70165,61.178058 L 568.72284,61.153593 L 568.74538,61.129898 L 568.76888,61.107553 L 568.79334,61.086363 L 568.81896,61.066136 L 568.84555,61.047257 L 568.8729,61.029728 L 568.90122,61.013353 L 568.9305,60.99852 L 568.96055,60.984843 L 568.99118,60.972707 L 569.02258,60.962112 L 569.05475,60.953058 L 569.0875,60.945353 L 569.12082,60.939574 L 569.15473,60.935143 L 569.18902,60.932639 L 569.22388,60.931676 L 569.25875,60.932639 L 569.29304,60.935143 L 569.32694,60.939574 L 569.36027,60.945353 L 569.39302,60.953058 L 569.42519,60.962112 L 569.45659,60.972707 L 569.48741,60.984843 L 569.51727,60.99852 L 569.54655,61.013353 L 569.57487,61.029728 L 569.60222,61.047257 L 569.62881,61.066136 L 569.65443,61.086363 L 569.67889,61.107553 L 569.70259,61.129898 L 569.72493,61.153593 L 569.74612,61.178058 L 569.76635,61.203678 L 569.78523,61.230262 L 569.80276,61.257616 L 569.81913,61.285934 L 569.83396,61.315215 L 569.84764,61.345073 L 569.85978,61.375895 L 569.87037,61.407295 L 569.87943,61.439465 L 569.88713,61.472213 L 569.89291,61.505539 L 569.89734,61.539443 L 569.89985,61.573733 L 569.90081,61.6086 L 569.90081,61.6086 z " id="path2414" style="fill:#1f1a17;fill-rule:nonzero"/>
   </g><g id="g2416">
    <path class="fil4" d="M 547.751,287.848 L 547.751,289.20724 L 547.71594,289.20628 L 547.68146,289.20377 L 547.64755,289.19934 L 547.61404,289.19337 L 547.58109,289.18586 L 547.54892,289.17661 L 547.51733,289.16602 L 547.48651,289.15388 L 547.45646,289.1402 L 547.42718,289.12518 L 547.39867,289.1088 L 547.37112,289.09108 L 547.34434,289.0722 L 547.31872,289.05198 L 547.29407,289.03059 L 547.27056,289.00825 L 547.24803,288.98455 L 547.22664,288.95989 L 547.20642,288.93427 L 547.18754,288.9075 L 547.16982,288.87995 L 547.15344,288.85144 L 547.13842,288.82216 L 547.12474,288.79211 L 547.1126,288.76129 L 547.10201,288.72969 L 547.09276,288.69752 L 547.08525,288.66458 L 547.07928,288.63106 L 547.07485,288.59716 L 547.07234,288.56268 L 547.07138,288.52762 L 547.07234,288.49256 L 547.07485,288.45808 L 547.07928,288.42417 L 547.08525,288.39065 L 547.09276,288.35771 L 547.10201,288.32554 L 547.1126,288.29395 L 547.12474,288.26313 L 547.13842,288.23308 L 547.15344,288.2038 L 547.16982,288.17529 L 547.18754,288.14774 L 547.20642,288.12096 L 547.22664,288.09534 L 547.24803,288.07069 L 547.27056,288.04718 L 547.29407,288.02465 L 547.31872,288.00326 L 547.34434,287.98304 L 547.37112,287.96416 L 547.39867,287.94643 L 547.42718,287.93006 L 547.45646,287.91503 L 547.48651,287.90136 L 547.51733,287.88922 L 547.54892,287.87863 L 547.58109,287.86938 L 547.61404,287.86187 L 547.64755,287.8559 L 547.68146,287.85146 L 547.71594,287.84896 L 547.751,287.848 L 547.751,287.848 z M 614.8921,289.20724 L 547.751,289.20724 L 547.751,287.848 L 614.8921,287.848 L 614.8921,289.20724 z M 619.67392,288.52762 L 611.40346,291.41331 L 611.51076,291.233 L 611.61112,291.05269 L 611.70455,290.87238 L 611.79105,290.69188 L 611.8708,290.51158 L 611.94342,290.33127 L 612.00911,290.15077 L 612.06806,289.97046 L 612.11988,289.79015 L 612.16495,289.60984 L 612.20309,289.42934 L 612.23411,289.24904 L 612.25838,289.06873 L 612.27572,288.88842 L 612.28612,288.70792 L 612.28959,288.52761 L 612.28612,288.3473 L 612.27572,288.1668 L 612.25838,287.9865 L 612.23411,287.80619 L 612.20309,287.62588 L 612.16495,287.44538 L 612.11988,287.26507 L 612.06806,287.08476 L 612.00911,286.90446 L 611.94342,286.72396 L 611.8708,286.54365 L 611.79105,286.36334 L 611.70455,286.18284 L 611.61112,286.00253 L 611.51076,285.82222 L 611.40346,285.64192 L 611.40346,285.64192 L 619.67392,288.52761 L 619.67392,288.52762 z M 614.8921,289.20724 L 614.8921,287.848 L 614.92716,287.84896 L 614.96164,287.85147 L 614.99555,287.8559 L 615.02906,287.86187 L 615.06201,287.86938 L 615.09418,287.87863 L 615.12577,287.88922 L 615.15659,287.90136 L 615.18664,287.91504 L 615.21592,287.93006 L 615.24443,287.94644 L 615.27198,287.96416 L 615.29876,287.98304 L 615.32438,288.00326 L 615.34903,288.02465 L 615.37273,288.04719 L 615.39507,288.07069 L 615.41646,288.09535 L 615.43668,288.12097 L 615.45556,288.14774 L 615.47328,288.17529 L 615.48966,288.2038 L 615.50468,288.23308 L 615.51836,288.26313 L 615.5305,288.29395 L 615.54109,288.32555 L 615.55034,288.35772 L 615.55785,288.39066 L 615.56382,288.42418 L 615.56825,288.45808 L 615.57076,288.49256 L 615.57172,288.52762 L 615.57076,288.56268 L 615.56825,288.59716 L 615.56382,288.63107 L 615.55785,288.66459 L 615.55034,288.69753 L 615.54109,288.7297 L 615.5305,288.76129 L 615.51836,288.79211 L 615.50468,288.82216 L 615.48966,288.85144 L 615.47328,288.87995 L 615.45556,288.9075 L 615.43668,288.93428 L 615.41646,288.9599 L 615.39507,288.98455 L 615.37273,289.00825 L 615.34903,289.03059 L 615.32438,289.05198 L 615.29876,289.0722 L 615.27198,289.09108 L 615.24443,289.10881 L 615.21592,289.12518 L 615.18664,289.14021 L 615.15659,289.15388 L 615.12577,289.16602 L 615.09418,289.17661 L 615.06201,289.18586 L 615.02906,289.19337 L 614.99555,289.19934 L 614.96164,289.20378 L 614.92716,289.20628 L 614.8921,289.20724 L 614.8921,289.20724 z " id="path2418" style="fill:#1f1a17;fill-rule:nonzero"/>
   </g><g id="g2420">
    <path class="fil4" d="M 167.159,382.716 L 168.51285,382.716 L 168.51189,382.75087 L 168.50938,382.78516 L 168.50495,382.81906 L 168.49917,382.85239 L 168.49147,382.88513 L 168.48241,382.91731 L 168.47182,382.9487 L 168.45968,382.97953 L 168.44601,383.00939 L 168.43117,383.03867 L 168.4148,383.06698 L 168.39727,383.09434 L 168.37839,383.12092 L 168.35816,383.14654 L 168.33697,383.17101 L 168.31443,383.1947 L 168.29093,383.21705 L 168.26647,383.23824 L 168.24085,383.25846 L 168.21426,383.27734 L 168.18691,383.29487 L 168.15859,383.31125 L 168.12931,383.32608 L 168.09926,383.33976 L 168.06863,383.35189 L 168.03723,383.36249 L 168.00506,383.37154 L 167.97231,383.37925 L 167.93899,383.38503 L 167.90508,383.38946 L 167.87079,383.39196 L 167.83593,383.39292 L 167.80106,383.39196 L 167.76677,383.38946 L 167.73287,383.38503 L 167.69954,383.37925 L 167.66679,383.37154 L 167.63462,383.36249 L 167.60322,383.35189 L 167.5724,383.33976 L 167.54254,383.32608 L 167.51326,383.31125 L 167.48494,383.29487 L 167.45759,383.27734 L 167.431,383.25846 L 167.40538,383.23824 L 167.38092,383.21705 L 167.35722,383.1947 L 167.33488,383.17101 L 167.31369,383.14654 L 167.29346,383.12092 L 167.27458,383.09434 L 167.25705,383.06698 L 167.24068,383.03867 L 167.22585,383.00939 L 167.21217,382.97953 L 167.20003,382.9487 L 167.18944,382.91731 L 167.18038,382.88513 L 167.17268,382.85239 L 167.1669,382.81906 L 167.16247,382.78516 L 167.15996,382.75087 L 167.159,382.716 L 167.159,382.716 z M 168.51304,288.5279 L 168.51285,382.716 L 167.159,382.716 L 167.15919,288.5279 L 168.51304,288.5279 z M 165.12842,288.5279 L 165.12842,288.5279 L 165.13189,288.38901 L 165.14248,288.25204 L 165.15963,288.11701 L 165.18351,287.98389 L 165.21395,287.85329 L 165.25036,287.72499 L 165.29312,287.59939 L 165.34167,287.47649 L 165.39599,287.35667 L 165.4559,287.23993 L 165.52121,287.12666 L 165.59171,287.01667 L 165.66742,286.91052 L 165.74794,286.80804 L 165.83308,286.7098 L 165.92285,286.6156 L 166.01686,286.52583 L 166.1153,286.44049 L 166.21759,286.35997 L 166.32373,286.28426 L 166.43372,286.21356 L 166.54699,286.14826 L 166.66373,286.08835 L 166.78355,286.03383 L 166.90645,285.98529 L 167.03225,285.94252 L 167.16054,285.90573 L 167.29134,285.87549 L 167.42465,285.8516 L 167.55988,285.83426 L 167.69703,285.82367 L 167.83612,285.8202 L 167.83612,285.8202 L 167.9752,285.82367 L 168.11236,285.83426 L 168.24759,285.8516 L 168.38089,285.87549 L 168.51169,285.90573 L 168.63999,285.94252 L 168.76578,285.98529 L 168.88868,286.03383 L 169.0085,286.08835 L 169.12524,286.14826 L 169.23871,286.21356 L 169.34851,286.28426 L 169.45465,286.35997 L 169.55694,286.44049 L 169.65538,286.52583 L 169.74939,286.6156 L 169.83915,286.7098 L 169.9243,286.80804 L 170.00482,286.91052 L 170.08053,287.01667 L 170.15103,287.12666 L 170.21634,287.23993 L 170.27625,287.35667 L 170.33057,287.47649 L 170.37911,287.59939 L 170.42188,287.72499 L 170.45829,287.85329 L 170.48872,287.98389 L 170.51261,288.11701 L 170.52976,288.25204 L 170.54035,288.3892 L 170.54382,288.5279 L 170.54382,288.5279 L 170.54035,288.66679 L 170.52976,288.80375 L 170.51261,288.93879 L 170.48872,289.0719 L 170.45829,289.20251 L 170.42188,289.33081 L 170.37911,289.45641 L 170.33057,289.57931 L 170.27625,289.69913 L 170.21634,289.81587 L 170.15103,289.92914 L 170.08053,290.03913 L 170.00482,290.14528 L 169.9243,290.24776 L 169.83915,290.346 L 169.74939,290.4402 L 169.65538,290.52997 L 169.55694,290.61531 L 169.45465,290.69583 L 169.34851,290.77154 L 169.23851,290.84224 L 169.12524,290.90754 L 169.00851,290.96745 L 168.88869,291.02196 L 168.76578,291.07051 L 168.63999,291.11327 L 168.5117,291.15007 L 168.3809,291.18031 L 168.24759,291.2042 L 168.11236,291.22154 L 167.9752,291.23213 L 167.83612,291.2356 L 167.83612,291.2356 L 167.69704,291.23213 L 167.55988,291.22154 L 167.42465,291.2042 L 167.29134,291.18031 L 167.16054,291.15007 L 167.03225,291.11327 L 166.90646,291.07051 L 166.78355,291.02196 L 166.66373,290.96745 L 166.547,290.90754 L 166.43353,290.84224 L 166.32373,290.77154 L 166.21759,290.69583 L 166.1153,290.61531 L 166.01686,290.52997 L 165.92285,290.4402 L 165.83308,290.346 L 165.74794,290.24776 L 165.66742,290.14528 L 165.59171,290.03913 L 165.52121,289.92914 L 165.4559,289.81587 L 165.39599,289.69913 L 165.34167,289.57931 L 165.29312,289.45641 L 165.25036,289.33081 L 165.21395,289.20251 L 165.18351,289.0719 L 165.15963,288.93879 L 165.14248,288.80375 L 165.13189,288.6666 L 165.12842,288.5279 z M 168.51304,288.5279 L 167.15919,288.5279 L 167.16015,288.49303 L 167.16266,288.45874 L 167.16709,288.42484 L 167.17287,288.39151 L 167.18057,288.35877 L 167.18963,288.32659 L 167.20022,288.2952 L 167.21236,288.26457 L 167.22603,288.23451 L 167.24087,288.20523 L 167.25724,288.17692 L 167.27477,288.14956 L 167.29365,288.12298 L 167.31388,288.09736 L 167.33507,288.07289 L 167.35741,288.04939 L 167.38111,288.02685 L 167.40557,288.00566 L 167.43119,287.98544 L 167.45778,287.96656 L 167.48513,287.94903 L 167.51345,287.93265 L 167.54273,287.91782 L 167.57259,287.90414 L 167.60341,287.89201 L 167.63481,287.88141 L 167.66698,287.87236 L 167.69973,287.86465 L 167.73305,287.85887 L 167.76696,287.85444 L 167.80125,287.85194 L 167.83611,287.85098 L 167.87098,287.85194 L 167.90527,287.85444 L 167.93917,287.85887 L 167.9725,287.86465 L 168.00525,287.87236 L 168.03742,287.88141 L 168.06882,287.89201 L 168.09945,287.90414 L 168.1295,287.91782 L 168.15878,287.93265 L 168.1871,287.94903 L 168.21445,287.96656 L 168.24104,287.98544 L 168.26666,288.00566 L 168.29112,288.02685 L 168.31462,288.04939 L 168.33716,288.07289 L 168.35835,288.09736 L 168.37858,288.12298 L 168.39746,288.14956 L 168.41499,288.17692 L 168.43136,288.20523 L 168.44619,288.23451 L 168.45987,288.26457 L 168.47201,288.2952 L 168.4826,288.32659 L 168.49166,288.35877 L 168.49936,288.39151 L 168.50514,288.42484 L 168.50957,288.45874 L 168.51208,288.49303 L 168.51304,288.5279 L 168.51304,288.5279 z " id="path2422" style="fill:#1f1a17;fill-rule:nonzero"/>
   </g><text x="83.271896" y="404.34201" class="fil2 fnt1" id="text2424" style="font-size:16.30999947px;font-weight:normal;fill:#1f1a17;font-family:DejaVu Sans">Clipping-Koordinaten</text>

<g id="g2426">
    <path class="fil4" d="M 371.253,382.716 L 372.60685,382.716 L 372.60589,382.75087 L 372.60338,382.78516 L 372.59895,382.81906 L 372.59317,382.85239 L 372.58547,382.88513 L 372.57641,382.91731 L 372.56582,382.9487 L 372.55368,382.97953 L 372.54001,383.00939 L 372.52517,383.03867 L 372.5088,383.06698 L 372.49127,383.09434 L 372.47239,383.12092 L 372.45216,383.14654 L 372.43097,383.17101 L 372.40843,383.1947 L 372.38493,383.21705 L 372.36047,383.23824 L 372.33485,383.25846 L 372.30826,383.27734 L 372.28091,383.29487 L 372.25259,383.31125 L 372.22331,383.32608 L 372.19326,383.33976 L 372.16263,383.35189 L 372.13123,383.36249 L 372.09906,383.37154 L 372.06631,383.37925 L 372.03299,383.38503 L 371.99908,383.38946 L 371.96479,383.39196 L 371.92993,383.39292 L 371.89506,383.39196 L 371.86077,383.38946 L 371.82687,383.38503 L 371.79354,383.37925 L 371.76079,383.37154 L 371.72862,383.36249 L 371.69722,383.35189 L 371.6664,383.33976 L 371.63654,383.32608 L 371.60726,383.31125 L 371.57894,383.29487 L 371.55159,383.27734 L 371.525,383.25846 L 371.49938,383.23824 L 371.47492,383.21705 L 371.45122,383.1947 L 371.42888,383.17101 L 371.40769,383.14654 L 371.38746,383.12092 L 371.36858,383.09434 L 371.35105,383.06698 L 371.33468,383.03867 L 371.31985,383.00939 L 371.30617,382.97953 L 371.29403,382.9487 L 371.28344,382.91731 L 371.27438,382.88513 L 371.26668,382.85239 L 371.2609,382.81906 L 371.25647,382.78516 L 371.25396,382.75087 L 371.253,382.716 L 371.253,382.716 z M 372.60704,288.5279 L 372.60685,382.716 L 371.253,382.716 L 371.25319,288.5279 L 372.60704,288.5279 z M 369.22242,288.5279 L 369.22242,288.5279 L 369.22589,288.38901 L 369.23648,288.25204 L 369.25363,288.11701 L 369.27751,287.98389 L 369.30795,287.85329 L 369.34436,287.72499 L 369.38712,287.59939 L 369.43567,287.47649 L 369.48999,287.35667 L 369.5499,287.23993 L 369.61521,287.12666 L 369.68571,287.01667 L 369.76142,286.91052 L 369.84194,286.80804 L 369.92708,286.7098 L 370.01685,286.6156 L 370.11086,286.52583 L 370.2093,286.44049 L 370.31159,286.35997 L 370.41773,286.28426 L 370.52772,286.21356 L 370.64099,286.14826 L 370.75773,286.08835 L 370.87755,286.03383 L 371.00045,285.98529 L 371.12625,285.94252 L 371.25454,285.90573 L 371.38534,285.87549 L 371.51865,285.8516 L 371.65388,285.83426 L 371.79103,285.82367 L 371.93012,285.8202 L 371.93012,285.8202 L 372.0692,285.82367 L 372.20636,285.83426 L 372.34159,285.8516 L 372.47489,285.87549 L 372.60569,285.90573 L 372.73399,285.94252 L 372.85978,285.98529 L 372.98268,286.03383 L 373.1025,286.08835 L 373.21924,286.14826 L 373.33271,286.21356 L 373.44251,286.28426 L 373.54865,286.35997 L 373.65094,286.44049 L 373.74938,286.52583 L 373.84339,286.6156 L 373.93315,286.7098 L 374.0183,286.80804 L 374.09882,286.91052 L 374.17453,287.01667 L 374.24503,287.12666 L 374.31034,287.23993 L 374.37025,287.35667 L 374.42457,287.47649 L 374.47311,287.59939 L 374.51588,287.72499 L 374.55229,287.85329 L 374.58272,287.98389 L 374.60661,288.11701 L 374.62376,288.25204 L 374.63435,288.3892 L 374.63782,288.5279 L 374.63782,288.5279 L 374.63435,288.66679 L 374.62376,288.80375 L 374.60661,288.93879 L 374.58272,289.0719 L 374.55229,289.20251 L 374.51588,289.33081 L 374.47311,289.45641 L 374.42457,289.57931 L 374.37025,289.69913 L 374.31034,289.81587 L 374.24503,289.92914 L 374.17453,290.03913 L 374.09882,290.14528 L 374.0183,290.24776 L 373.93315,290.346 L 373.84339,290.4402 L 373.74938,290.52997 L 373.65094,290.61531 L 373.54865,290.69583 L 373.44251,290.77154 L 373.33251,290.84224 L 373.21924,290.90754 L 373.10251,290.96745 L 372.98269,291.02196 L 372.85978,291.07051 L 372.73399,291.11327 L 372.6057,291.15007 L 372.4749,291.18031 L 372.34159,291.2042 L 372.20636,291.22154 L 372.0692,291.23213 L 371.93012,291.2356 L 371.93012,291.2356 L 371.79104,291.23213 L 371.65388,291.22154 L 371.51865,291.2042 L 371.38534,291.18031 L 371.25454,291.15007 L 371.12625,291.11327 L 371.00046,291.07051 L 370.87755,291.02196 L 370.75773,290.96745 L 370.641,290.90754 L 370.52753,290.84224 L 370.41773,290.77154 L 370.31159,290.69583 L 370.2093,290.61531 L 370.11086,290.52997 L 370.01685,290.4402 L 369.92708,290.346 L 369.84194,290.24776 L 369.76142,290.14528 L 369.68571,290.03913 L 369.61521,289.92914 L 369.5499,289.81587 L 369.48999,289.69913 L 369.43567,289.57931 L 369.38712,289.45641 L 369.34436,289.33081 L 369.30795,289.20251 L 369.27751,289.0719 L 369.25363,288.93879 L 369.23648,288.80375 L 369.22589,288.6666 L 369.22242,288.5279 z M 372.60704,288.5279 L 371.25319,288.5279 L 371.25415,288.49303 L 371.25666,288.45874 L 371.26109,288.42484 L 371.26687,288.39151 L 371.27457,288.35877 L 371.28363,288.32659 L 371.29422,288.2952 L 371.30636,288.26457 L 371.32003,288.23451 L 371.33487,288.20523 L 371.35124,288.17692 L 371.36877,288.14956 L 371.38765,288.12298 L 371.40788,288.09736 L 371.42907,288.07289 L 371.45141,288.04939 L 371.47511,288.02685 L 371.49957,288.00566 L 371.52519,287.98544 L 371.55178,287.96656 L 371.57913,287.94903 L 371.60745,287.93265 L 371.63673,287.91782 L 371.66659,287.90414 L 371.69741,287.89201 L 371.72881,287.88141 L 371.76098,287.87236 L 371.79373,287.86465 L 371.82705,287.85887 L 371.86096,287.85444 L 371.89525,287.85194 L 371.93011,287.85098 L 371.96498,287.85194 L 371.99927,287.85444 L 372.03317,287.85887 L 372.0665,287.86465 L 372.09925,287.87236 L 372.13142,287.88141 L 372.16282,287.89201 L 372.19345,287.90414 L 372.2235,287.91782 L 372.25278,287.93265 L 372.2811,287.94903 L 372.30845,287.96656 L 372.33504,287.98544 L 372.36066,288.00566 L 372.38512,288.02685 L 372.40862,288.04939 L 372.43116,288.07289 L 372.45235,288.09736 L 372.47258,288.12298 L 372.49146,288.14956 L 372.50899,288.17692 L 372.52536,288.20523 L 372.54019,288.23451 L 372.55387,288.26457 L 372.56601,288.2952 L 372.5766,288.32659 L 372.58566,288.35877 L 372.59336,288.39151 L 372.59914,288.42484 L 372.60357,288.45874 L 372.60608,288.49303 L 372.60704,288.5279 L 372.60704,288.5279 z " id="path2428" style="fill:#1f1a17;fill-rule:nonzero"/>
   </g><text x="308.70599" y="404.34201" class="fil2 fnt1" id="text2430" style="font-size:16.30999947px;font-weight:normal;fill:#1f1a17;font-family:DejaVu Sans">Bildkoordinaten</text>

<g id="g2432">
    <path class="fil4" d="M 583.035,382.716 L 584.38885,382.716 L 584.38789,382.75087 L 584.38538,382.78516 L 584.38095,382.81906 L 584.37517,382.85239 L 584.36747,382.88513 L 584.35841,382.91731 L 584.34782,382.9487 L 584.33568,382.97953 L 584.32201,383.00939 L 584.30717,383.03867 L 584.2908,383.06698 L 584.27327,383.09434 L 584.25439,383.12092 L 584.23416,383.14654 L 584.21297,383.17101 L 584.19063,383.1947 L 584.16693,383.21705 L 584.14247,383.23824 L 584.11685,383.25846 L 584.09026,383.27734 L 584.06291,383.29487 L 584.03459,383.31125 L 584.00531,383.32608 L 583.97545,383.33976 L 583.94463,383.35189 L 583.91323,383.36249 L 583.88106,383.37154 L 583.84831,383.37925 L 583.81499,383.38503 L 583.78108,383.38946 L 583.74679,383.39196 L 583.71193,383.39292 L 583.67706,383.39196 L 583.64277,383.38946 L 583.60887,383.38503 L 583.57554,383.37925 L 583.54279,383.37154 L 583.51062,383.36249 L 583.47922,383.35189 L 583.44859,383.33976 L 583.41854,383.32608 L 583.38926,383.31125 L 583.36094,383.29487 L 583.33359,383.27734 L 583.307,383.25846 L 583.28138,383.23824 L 583.25692,383.21705 L 583.23342,383.1947 L 583.21088,383.17101 L 583.18969,383.14654 L 583.16946,383.12092 L 583.15058,383.09434 L 583.13305,383.06698 L 583.11668,383.03867 L 583.10185,383.00939 L 583.08817,382.97953 L 583.07603,382.9487 L 583.06544,382.91731 L 583.05638,382.88513 L 583.04868,382.85239 L 583.0429,382.81906 L 583.03847,382.78516 L 583.03596,382.75087 L 583.035,382.716 L 583.035,382.716 z M 584.38904,288.5279 L 584.38885,382.716 L 583.035,382.716 L 583.03519,288.5279 L 584.38904,288.5279 z M 581.00442,288.5279 L 581.00442,288.5279 L 581.00789,288.38901 L 581.01848,288.25204 L 581.03563,288.11701 L 581.05951,287.98389 L 581.08995,287.85329 L 581.12636,287.72499 L 581.16912,287.59939 L 581.21767,287.47649 L 581.27199,287.35667 L 581.3319,287.23993 L 581.39721,287.12666 L 581.46771,287.01667 L 581.54342,286.91052 L 581.62394,286.80804 L 581.70908,286.7098 L 581.79885,286.6156 L 581.89286,286.52583 L 581.9913,286.44049 L 582.09359,286.35997 L 582.19973,286.28426 L 582.30972,286.21356 L 582.42299,286.14826 L 582.53973,286.08835 L 582.65955,286.03383 L 582.78245,285.98529 L 582.90825,285.94252 L 583.03654,285.90573 L 583.16734,285.87549 L 583.30065,285.8516 L 583.43588,285.83426 L 583.57303,285.82367 L 583.71212,285.8202 L 583.71212,285.8202 L 583.8512,285.82367 L 583.98836,285.83426 L 584.12359,285.8516 L 584.25689,285.87549 L 584.38769,285.90573 L 584.51599,285.94252 L 584.64178,285.98529 L 584.76468,286.03383 L 584.8845,286.08835 L 585.00124,286.14826 L 585.11471,286.21356 L 585.22451,286.28426 L 585.33065,286.35997 L 585.43294,286.44049 L 585.53138,286.52583 L 585.62539,286.6156 L 585.71515,286.7098 L 585.8003,286.80804 L 585.88082,286.91052 L 585.95653,287.01667 L 586.02703,287.12666 L 586.09234,287.23993 L 586.15225,287.35667 L 586.20657,287.47649 L 586.25511,287.59939 L 586.29788,287.72499 L 586.33429,287.85329 L 586.36472,287.98389 L 586.38861,288.11701 L 586.40576,288.25204 L 586.41635,288.3892 L 586.41982,288.5279 L 586.41982,288.5279 L 586.41635,288.66679 L 586.40576,288.80375 L 586.38861,288.93879 L 586.36472,289.0719 L 586.33429,289.20251 L 586.29788,289.33081 L 586.25511,289.45641 L 586.20657,289.57931 L 586.15225,289.69913 L 586.09234,289.81587 L 586.02703,289.92914 L 585.95653,290.03913 L 585.88082,290.14528 L 585.8003,290.24776 L 585.71515,290.346 L 585.62539,290.4402 L 585.53138,290.52997 L 585.43294,290.61531 L 585.33065,290.69583 L 585.22451,290.77154 L 585.11451,290.84224 L 585.00124,290.90754 L 584.88451,290.96745 L 584.76469,291.02196 L 584.64178,291.07051 L 584.51599,291.11327 L 584.3877,291.15007 L 584.2569,291.18031 L 584.12359,291.2042 L 583.98836,291.22154 L 583.8512,291.23213 L 583.71212,291.2356 L 583.71212,291.2356 L 583.57304,291.23213 L 583.43588,291.22154 L 583.30065,291.2042 L 583.16734,291.18031 L 583.03654,291.15007 L 582.90825,291.11327 L 582.78246,291.07051 L 582.65955,291.02196 L 582.53973,290.96745 L 582.423,290.90754 L 582.30953,290.84224 L 582.19973,290.77154 L 582.09359,290.69583 L 581.9913,290.61531 L 581.89286,290.52997 L 581.79885,290.4402 L 581.70908,290.346 L 581.62394,290.24776 L 581.54342,290.14528 L 581.46771,290.03913 L 581.39721,289.92914 L 581.3319,289.81587 L 581.27199,289.69913 L 581.21767,289.57931 L 581.16912,289.45641 L 581.12636,289.33081 L 581.08995,289.20251 L 581.05951,289.0719 L 581.03563,288.93879 L 581.01848,288.80375 L 581.00789,288.6666 L 581.00442,288.5279 z M 584.38904,288.5279 L 583.03519,288.5279 L 583.03615,288.49303 L 583.03866,288.45874 L 583.04309,288.42484 L 583.04887,288.39151 L 583.05657,288.35877 L 583.06563,288.32659 L 583.07622,288.2952 L 583.08836,288.26457 L 583.10203,288.23451 L 583.11687,288.20523 L 583.13324,288.17692 L 583.15077,288.14956 L 583.16965,288.12298 L 583.18988,288.09736 L 583.21107,288.07289 L 583.23361,288.04939 L 583.25711,288.02685 L 583.28157,288.00566 L 583.30719,287.98544 L 583.33378,287.96656 L 583.36113,287.94903 L 583.38945,287.93265 L 583.41873,287.91782 L 583.44878,287.90414 L 583.47941,287.89201 L 583.51081,287.88141 L 583.54298,287.87236 L 583.57573,287.86465 L 583.60905,287.85887 L 583.64296,287.85444 L 583.67725,287.85194 L 583.71211,287.85098 L 583.74698,287.85194 L 583.78127,287.85444 L 583.81517,287.85887 L 583.8485,287.86465 L 583.88125,287.87236 L 583.91342,287.88141 L 583.94482,287.89201 L 583.97564,287.90414 L 584.0055,287.91782 L 584.03478,287.93265 L 584.0631,287.94903 L 584.09045,287.96656 L 584.11704,287.98544 L 584.14266,288.00566 L 584.16712,288.02685 L 584.19082,288.04939 L 584.21316,288.07289 L 584.23435,288.09736 L 584.25458,288.12298 L 584.27346,288.14956 L 584.29099,288.17692 L 584.30736,288.20523 L 584.32219,288.23451 L 584.33587,288.26457 L 584.34801,288.2952 L 584.3586,288.32659 L 584.36766,288.35877 L 584.37536,288.39151 L 584.38114,288.42484 L 584.38557,288.45874 L 584.38808,288.49303 L 584.38904,288.5279 L 584.38904,288.5279 z " id="path2434" style="fill:#1f1a17;fill-rule:nonzero"/>
   </g><text x="507.89001" y="404.34201" class="fil2 fnt1" id="text2436" style="font-size:16.30999947px;font-weight:normal;fill:#1f1a17;font-family:DejaVu Sans">Gertekoordinaten</text>






<polygon class="fil6 str0" points="79.2903,88.5259 65.1233,86.7099 50.956,84.8943 59.6125,73.533 68.2682,62.1717 73.7798,75.349 79.2903,88.5259 " id="polygon2448" style="fill:#ccced2;stroke:#1f1a17;stroke-width:1.35905004;stroke-linecap:round;stroke-linejoin:round"/><polygon class="fil6 str0" points="28.7841,107.112 52.4116,102.448 76.039,97.784 75.3946,107.516 74.7499,117.248 51.767,112.18 28.7841,107.112 " id="polygon2450" style="fill:#ccced2;stroke:#1f1a17;stroke-width:1.35905004;stroke-linecap:round;stroke-linejoin:round"/><circle class="fil6 str0" cx="107.148" cy="100.412" r="15.3655" id="circle2452" sodipodi:cx="107.148" sodipodi:cy="100.412" sodipodi:rx="15.3655" sodipodi:ry="15.3655" style="fill:#ccced2;stroke:#1f1a17;stroke-width:1.35905004;stroke-linecap:round;stroke-linejoin:round"/>
</svg>